<svg width="512" height="512" viewBox="0 0 512 512" fill="none" xmlns="http://www.w3.org/2000/svg">
  <rect width="512" height="512" rx="100" fill="#0ea5e9"/>
  <g transform="translate(106, 106) scale(3)" fill="white">
    <path d="M50 8C50 3.58172 53.5817 0 58 0H62C66.4183 0 70 3.58172 70 8V12H80C84.4183 12 88 15.5817 88 20V28C88 30.7614 87.1046 33.3131 85.5814 35.3944C93.5272 40.7504 99 49.7109 99 60C99 76.5685 85.5685 90 69 90C62.4896 90 56.4631 87.8326 51.5 84.1996C46.5369 87.8326 40.5104 90 34 90C17.4315 90 4 76.5685 4 60C4 49.7109 9.47282 40.7504 17.4186 35.3944C15.8954 33.3131 15 30.7614 15 28V20C15 15.5817 18.5817 12 23 12H33V8C33 3.58172 36.5817 0 41 0H45C49.4183 0 53 3.58172 53 8V12H67V8H50ZM34 42C23.5066 42 15 50.5066 15 61C15 71.4934 23.5066 80 34 80C44.4934 80 53 71.4934 53 61C53 50.5066 44.4934 42 34 42ZM50 61C50 50.5066 58.5066 42 69 42C79.4934 42 88 50.5066 88 61C88 71.4934 79.4934 80 69 80C58.5066 80 50 71.4934 50 61Z"/>
  </g>
</svg>
